<?xml version="1.0" encoding="UTF-8" standalone="no"?>
<!DOCTYPE svg PUBLIC "-//W3C//DTD SVG 1.1//EN"
 "http://www.w3.org/Graphics/SVG/1.1/DTD/svg11.dtd">
<!-- Generated by graphviz version 2.26.3 (20100126.1600)
 -->
<!-- Title: QStateMachine 2016&#45;okt&#45;14 13:16:48 Pages: 1 -->
<svg width="988pt" height="894pt"
 viewBox="0.00 0.00 988.00 894.00" xmlns="http://www.w3.org/2000/svg" xmlns:xlink="http://www.w3.org/1999/xlink">
<g id="graph1" class="graph" transform="scale(1 1) rotate(0) translate(4 890)">
<title>QStateMachine 2016&#45;okt&#45;14 13:16:48</title>
<polygon fill="white" stroke="white" points="-4,5 -4,-890 985,-890 985,5 -4,5"/>
<text text-anchor="middle" x="490" y="-7.4" font-family="Times New Roman,serif" font-size="14.00">QStateMachine 2016&#45;okt&#45;14 13:16:48</text>
<g id="graph2" class="cluster"><title>cluster_state_000002095DFCC950</title>
<polygon fill="none" stroke="black" points="8,-32 8,-822 972,-822 972,-32 8,-32"/>
<text text-anchor="middle" x="490" y="-805.4" font-family="Times New Roman,serif" font-size="14.00">RootGroup</text>
</g>
<g id="graph3" class="cluster"><title>cluster_state_000002095DFCDB70</title>
<polygon fill="none" stroke="black" points="611,-522 611,-790 964,-790 964,-522 611,-522"/>
<text text-anchor="middle" x="787.5" y="-773.4" font-family="Times New Roman,serif" font-size="14.00">WindowGroup</text>
</g>
<g id="graph4" class="cluster"><title>cluster_state_000002095DFCD8A0</title>
<polygon fill="none" stroke="black" points="88,-40 88,-790 603,-790 603,-40 88,-40"/>
<text text-anchor="middle" x="345.5" y="-773.4" font-family="Times New Roman,serif" font-size="14.00">MainGroup</text>
</g>
<g id="graph5" class="cluster"><title>cluster_state_000002095DF67E20</title>
<polygon fill="none" stroke="black" points="96,-48 96,-598 595,-598 595,-48 96,-48"/>
<text text-anchor="middle" x="345.5" y="-581.4" font-family="Times New Roman,serif" font-size="14.00">ConnectedToServer</text>
</g>
<g id="graph6" class="cluster"><title>cluster_state_000002095DFCD0D0</title>
<polygon fill="none" stroke="black" points="104,-56 104,-406 370,-406 370,-56 104,-56"/>
<text text-anchor="middle" x="237" y="-389.4" font-family="Times New Roman,serif" font-size="14.00">ConnectedToControlPanel</text>
</g>
<g id="graph7" class="cluster"><title>cluster_state_000002095DFCC9A0</title>
<polygon fill="none" stroke="black" points="112,-64 112,-214 362,-214 362,-64 112,-64"/>
<text text-anchor="middle" x="237" y="-197.4" font-family="Times New Roman,serif" font-size="14.00">Ready</text>
</g>
<!-- initialstate_000002095B1CACE0 -->
<g id="node1" class="node"><title>initialstate_000002095B1CACE0</title>
<ellipse fill="none" stroke="black" cx="48" cy="-868" rx="27" ry="18"/>
</g>
<!-- state_000002095DFCC950 -->
<g id="state_000002095DFCC950" class="node"><title>state_000002095DFCC950</title>
<polyline fill="none" stroke="black" points="68,-758 28,-758 "/>
<path fill="none" stroke="black" d="M28,-758C22,-758 16,-752 16,-746"/>
<polyline fill="none" stroke="black" points="16,-746 16,-734 "/>
<path fill="none" stroke="black" d="M16,-734C16,-728 22,-722 28,-722"/>
<polyline fill="none" stroke="black" points="28,-722 68,-722 "/>
<path fill="none" stroke="black" d="M68,-722C74,-722 80,-728 80,-734"/>
<polyline fill="none" stroke="black" points="80,-734 80,-746 "/>
<path fill="none" stroke="black" d="M80,-746C80,-752 74,-758 68,-758"/>
<text text-anchor="middle" x="48" y="-736.6" font-family="Times New Roman,serif" font-size="11.00">RootGroup</text>
</g>
<!-- initialstate_000002095B1CACE0&#45;&gt;state_000002095DFCC950 -->
<g id="edge2" class="edge"><title>initialstate_000002095B1CACE0&#45;&gt;state_000002095DFCC950</title>
<path fill="none" stroke="black" d="M48,-849.932C48,-828.802 48,-793.553 48,-768.674"/>
<polygon fill="black" stroke="black" points="51.5001,-768.39 48,-758.39 44.5001,-768.39 51.5001,-768.39"/>
</g>
<!-- state_000002095DFCDB70 -->
<g id="state_000002095DFCDB70" class="node"><title>state_000002095DFCDB70</title>
<polyline fill="none" stroke="black" points="906,-758 850,-758 "/>
<path fill="none" stroke="black" d="M850,-758C844,-758 838,-752 838,-746"/>
<polyline fill="none" stroke="black" points="838,-746 838,-734 "/>
<path fill="none" stroke="black" d="M838,-734C838,-728 844,-722 850,-722"/>
<polyline fill="none" stroke="black" points="850,-722 906,-722 "/>
<path fill="none" stroke="black" d="M906,-722C912,-722 918,-728 918,-734"/>
<polyline fill="none" stroke="black" points="918,-734 918,-746 "/>
<path fill="none" stroke="black" d="M918,-746C918,-752 912,-758 906,-758"/>
<text text-anchor="middle" x="878" y="-736.6" font-family="Times New Roman,serif" font-size="11.00">WindowGroup</text>
</g>
<!-- initialstate_000002095DFCDB70 -->
<g id="node7" class="node"><title>initialstate_000002095DFCDB70</title>
<ellipse fill="none" stroke="black" cx="756" cy="-740" rx="27" ry="18"/>
</g>
<!-- state_000002095DF6B2A0 -->
<g id="state_000002095DF6B2A0" class="node"><title>state_000002095DF6B2A0</title>
<polyline fill="none" stroke="black" points="794,-684 718,-684 "/>
<path fill="none" stroke="black" d="M718,-684C712,-684 706,-678 706,-672"/>
<polyline fill="none" stroke="black" points="706,-672 706,-660 "/>
<path fill="none" stroke="black" d="M706,-660C706,-654 712,-648 718,-648"/>
<polyline fill="none" stroke="black" points="718,-648 794,-648 "/>
<path fill="none" stroke="black" d="M794,-648C800,-648 806,-654 806,-660"/>
<polyline fill="none" stroke="black" points="806,-660 806,-672 "/>
<path fill="none" stroke="black" d="M806,-672C806,-678 800,-684 794,-684"/>
<text text-anchor="middle" x="756" y="-662.6" font-family="Times New Roman,serif" font-size="11.00">ShowSplashScreen</text>
</g>
<!-- initialstate_000002095DFCDB70&#45;&gt;state_000002095DF6B2A0 -->
<g id="edge6" class="edge"><title>initialstate_000002095DFCDB70&#45;&gt;state_000002095DF6B2A0</title>
<path fill="none" stroke="black" d="M756,-721.708C756,-713.464 756,-703.538 756,-694.362"/>
<polygon fill="black" stroke="black" points="759.5,-694.082 756,-684.082 752.5,-694.082 759.5,-694.082"/>
</g>
<!-- state_000002095DF6B380 -->
<g id="state_000002095DF6B380" class="node"><title>state_000002095DF6B380</title>
<polyline fill="none" stroke="black" points="794,-566 718,-566 "/>
<path fill="none" stroke="black" d="M718,-566C712,-566 706,-560 706,-554"/>
<polyline fill="none" stroke="black" points="706,-554 706,-542 "/>
<path fill="none" stroke="black" d="M706,-542C706,-536 712,-530 718,-530"/>
<polyline fill="none" stroke="black" points="718,-530 794,-530 "/>
<path fill="none" stroke="black" d="M794,-530C800,-530 806,-536 806,-542"/>
<polyline fill="none" stroke="black" points="806,-542 806,-554 "/>
<path fill="none" stroke="black" d="M806,-554C806,-560 800,-566 794,-566"/>
<text text-anchor="middle" x="756" y="-544.6" font-family="Times New Roman,serif" font-size="11.00">ShowMainWindow</text>
</g>
<!-- state_000002095DF6B2A0&#45;&gt;state_000002095DF6B380 -->
<g id="transition_000002095DFCD030_000002095DF6B380" class="edge"><title>state_000002095DF6B2A0&#45;&gt;state_000002095DF6B380</title>
<path fill="none" stroke="black" d="M705.685,-656.84C677.522,-650.577 646.412,-641.361 638,-630 616.583,-601.074 656.784,-578.708 695.953,-564.694"/>
<polygon fill="black" stroke="black" points="697.519,-567.858 705.851,-561.313 695.256,-561.234 697.519,-567.858"/>
<text text-anchor="middle" x="686" y="-621.9" font-family="Times New Roman,serif" font-size="9.00">Signal</text>
<text text-anchor="middle" x="686" y="-609.9" font-family="Times New Roman,serif" font-size="9.00">PingServer::onPingFailed()</text>
</g>
<!-- state_000002095DF6B2A0&#45;&gt;state_000002095DF6B380 -->
<g id="transition_000002095DFCCD60_000002095DF6B380" class="edge"><title>state_000002095DF6B2A0&#45;&gt;state_000002095DF6B380</title>
<path fill="none" stroke="black" d="M756,-647.821C756,-628.709 756,-598.389 756,-576.175"/>
<polygon fill="black" stroke="black" points="759.5,-576.006 756,-566.006 752.5,-576.006 759.5,-576.006"/>
<text text-anchor="middle" x="799.5" y="-621.9" font-family="Times New Roman,serif" font-size="9.00">Signal</text>
<text text-anchor="middle" x="799.5" y="-609.9" font-family="Times New Roman,serif" font-size="9.00">InitRpc::rpcInitialized()</text>
</g>
<!-- state_000002095DF6B2A0&#45;&gt;state_000002095DF6B380 -->
<g id="transition_000002095DFCD170_000002095DF6B380" class="edge"><title>state_000002095DF6B2A0&#45;&gt;state_000002095DF6B380</title>
<path fill="none" stroke="black" d="M806.267,-656.642C820.887,-651.334 835.259,-643.02 844,-630 859.373,-607.102 835.462,-586.006 808.71,-570.946"/>
<polygon fill="black" stroke="black" points="810.051,-567.695 799.581,-566.077 806.757,-573.872 810.051,-567.695"/>
<text text-anchor="middle" x="893" y="-621.9" font-family="Times New Roman,serif" font-size="9.00">Signal</text>
<text text-anchor="middle" x="893" y="-609.9" font-family="Times New Roman,serif" font-size="9.00">::loadingFinishedCalled()</text>
</g>
<!-- state_000002095DFCD8A0 -->
<g id="state_000002095DFCD8A0" class="node"><title>state_000002095DFCD8A0</title>
<polyline fill="none" stroke="black" points="554,-758 512,-758 "/>
<path fill="none" stroke="black" d="M512,-758C506,-758 500,-752 500,-746"/>
<polyline fill="none" stroke="black" points="500,-746 500,-734 "/>
<path fill="none" stroke="black" d="M500,-734C500,-728 506,-722 512,-722"/>
<polyline fill="none" stroke="black" points="512,-722 554,-722 "/>
<path fill="none" stroke="black" d="M554,-722C560,-722 566,-728 566,-734"/>
<polyline fill="none" stroke="black" points="566,-734 566,-746 "/>
<path fill="none" stroke="black" d="M566,-746C566,-752 560,-758 554,-758"/>
<text text-anchor="middle" x="533" y="-736.6" font-family="Times New Roman,serif" font-size="11.00">MainGroup</text>
</g>
<!-- initialstate_000002095DFCD8A0 -->
<g id="node13" class="node"><title>initialstate_000002095DFCD8A0</title>
<ellipse fill="none" stroke="black" cx="426" cy="-740" rx="27" ry="18"/>
</g>
<!-- state_000002095F16FD00 -->
<g id="state_000002095F16FD00" class="node"><title>state_000002095F16FD00</title>
<polyline fill="none" stroke="black" points="446,-684 406,-684 "/>
<path fill="none" stroke="black" d="M406,-684C400,-684 394,-678 394,-672"/>
<polyline fill="none" stroke="black" points="394,-672 394,-660 "/>
<path fill="none" stroke="black" d="M394,-660C394,-654 400,-648 406,-648"/>
<polyline fill="none" stroke="black" points="406,-648 446,-648 "/>
<path fill="none" stroke="black" d="M446,-648C452,-648 458,-654 458,-660"/>
<polyline fill="none" stroke="black" points="458,-660 458,-672 "/>
<path fill="none" stroke="black" d="M458,-672C458,-678 452,-684 446,-684"/>
<text text-anchor="middle" x="426" y="-662.6" font-family="Times New Roman,serif" font-size="11.00">PingServer</text>
</g>
<!-- initialstate_000002095DFCD8A0&#45;&gt;state_000002095F16FD00 -->
<g id="edge9" class="edge"><title>initialstate_000002095DFCD8A0&#45;&gt;state_000002095F16FD00</title>
<path fill="none" stroke="black" d="M426,-721.708C426,-713.464 426,-703.538 426,-694.362"/>
<polygon fill="black" stroke="black" points="429.5,-694.082 426,-684.082 422.5,-694.082 429.5,-694.082"/>
</g>
<!-- state_000002095DF67E20 -->
<g id="state_000002095DF67E20" class="node"><title>state_000002095DF67E20</title>
<polyline fill="none" stroke="black" points="500,-566 420,-566 "/>
<path fill="none" stroke="black" d="M420,-566C414,-566 408,-560 408,-554"/>
<polyline fill="none" stroke="black" points="408,-554 408,-542 "/>
<path fill="none" stroke="black" d="M408,-542C408,-536 414,-530 420,-530"/>
<polyline fill="none" stroke="black" points="420,-530 500,-530 "/>
<path fill="none" stroke="black" d="M500,-530C506,-530 512,-536 512,-542"/>
<polyline fill="none" stroke="black" points="512,-542 512,-554 "/>
<path fill="none" stroke="black" d="M512,-554C512,-560 506,-566 500,-566"/>
<text text-anchor="middle" x="460" y="-544.6" font-family="Times New Roman,serif" font-size="11.00">ConnectedToServer</text>
</g>
<!-- state_000002095F16FD00&#45;&gt;state_000002095DF67E20 -->
<g id="transition_000002095DFA0890_000002095DF67E20" class="edge"><title>state_000002095F16FD00&#45;&gt;state_000002095DF67E20</title>
<path fill="none" stroke="black" d="M396.095,-647.688C390.395,-642.705 385.212,-636.779 382,-630 377.432,-620.361 377.21,-615.531 382,-606 388.957,-592.156 400.957,-580.782 413.487,-571.887"/>
<polygon fill="black" stroke="black" points="415.785,-574.564 422.192,-566.125 411.921,-568.727 415.785,-574.564"/>
<text text-anchor="middle" x="412" y="-615.9" font-family="Times New Roman,serif" font-size="9.00">ConnectedEvent</text>
</g>
<!-- state_000002095DF67E20&#45;&gt;state_000002095F16FD00 -->
<g id="transition_000002095DFCCB30_000002095F16FD00" class="edge"><title>state_000002095DF67E20&#45;&gt;state_000002095F16FD00</title>
<path fill="none" stroke="black" d="M458.681,-566.032C457.037,-582.945 453.473,-608.746 446,-630 444.966,-632.94 443.704,-635.923 442.322,-638.849"/>
<polygon fill="black" stroke="black" points="439.136,-637.39 437.63,-647.877 445.347,-640.618 439.136,-637.39"/>
<text text-anchor="middle" x="512" y="-621.9" font-family="Times New Roman,serif" font-size="9.00">Signal</text>
<text text-anchor="middle" x="512" y="-609.9" font-family="Times New Roman,serif" font-size="9.00">::socketDisconnected(QObject*)</text>
</g>
<!-- initialstate_000002095DF67E20 -->
<g id="node18" class="node"><title>initialstate_000002095DF67E20</title>
<ellipse fill="none" stroke="black" cx="298" cy="-548" rx="27" ry="18"/>
</g>
<!-- state_000002095DF68280 -->
<g id="state_000002095DF68280" class="node"><title>state_000002095DF68280</title>
<polyline fill="none" stroke="black" points="313,-492 283,-492 "/>
<path fill="none" stroke="black" d="M283,-492C277,-492 271,-486 271,-480"/>
<polyline fill="none" stroke="black" points="271,-480 271,-468 "/>
<path fill="none" stroke="black" d="M271,-468C271,-462 277,-456 283,-456"/>
<polyline fill="none" stroke="black" points="283,-456 313,-456 "/>
<path fill="none" stroke="black" d="M313,-456C319,-456 325,-462 325,-468"/>
<polyline fill="none" stroke="black" points="325,-468 325,-480 "/>
<path fill="none" stroke="black" d="M325,-480C325,-486 319,-492 313,-492"/>
<text text-anchor="middle" x="298" y="-470.6" font-family="Times New Roman,serif" font-size="11.00">InitRpc</text>
</g>
<!-- initialstate_000002095DF67E20&#45;&gt;state_000002095DF68280 -->
<g id="edge12" class="edge"><title>initialstate_000002095DF67E20&#45;&gt;state_000002095DF68280</title>
<path fill="none" stroke="black" d="M298,-529.708C298,-521.464 298,-511.538 298,-502.362"/>
<polygon fill="black" stroke="black" points="301.5,-502.082 298,-492.082 294.5,-502.082 301.5,-502.082"/>
</g>
<!-- state_000002095DFCD0D0 -->
<g id="state_000002095DFCD0D0" class="node"><title>state_000002095DFCD0D0</title>
<polyline fill="none" stroke="black" points="304,-374 196,-374 "/>
<path fill="none" stroke="black" d="M196,-374C190,-374 184,-368 184,-362"/>
<polyline fill="none" stroke="black" points="184,-362 184,-350 "/>
<path fill="none" stroke="black" d="M184,-350C184,-344 190,-338 196,-338"/>
<polyline fill="none" stroke="black" points="196,-338 304,-338 "/>
<path fill="none" stroke="black" d="M304,-338C310,-338 316,-344 316,-350"/>
<polyline fill="none" stroke="black" points="316,-350 316,-362 "/>
<path fill="none" stroke="black" d="M316,-362C316,-368 310,-374 304,-374"/>
<text text-anchor="middle" x="250" y="-352.6" font-family="Times New Roman,serif" font-size="11.00">ConnectedToControlPanel</text>
</g>
<!-- state_000002095DF68280&#45;&gt;state_000002095DFCD0D0 -->
<g id="transition_000002095DFCD4E0_000002095DFCD0D0" class="edge"><title>state_000002095DF68280&#45;&gt;state_000002095DFCD0D0</title>
<path fill="none" stroke="black" d="M290.605,-455.821C282.725,-436.449 270.16,-405.56 261.093,-383.271"/>
<polygon fill="black" stroke="black" points="264.335,-381.95 257.324,-374.006 257.85,-384.588 264.335,-381.95"/>
<text text-anchor="middle" x="330" y="-429.9" font-family="Times New Roman,serif" font-size="9.00">Signal</text>
<text text-anchor="middle" x="330" y="-417.9" font-family="Times New Roman,serif" font-size="9.00">::controlPanelConnected()</text>
</g>
<!-- state_000002095DF68050 -->
<g id="state_000002095DF68050" class="node"><title>state_000002095DF68050</title>
<polyline fill="none" stroke="black" points="575,-374 451,-374 "/>
<path fill="none" stroke="black" d="M451,-374C445,-374 439,-368 439,-362"/>
<polyline fill="none" stroke="black" points="439,-362 439,-350 "/>
<path fill="none" stroke="black" d="M439,-350C439,-344 445,-338 451,-338"/>
<polyline fill="none" stroke="black" points="451,-338 575,-338 "/>
<path fill="none" stroke="black" d="M575,-338C581,-338 587,-344 587,-350"/>
<polyline fill="none" stroke="black" points="587,-350 587,-362 "/>
<path fill="none" stroke="black" d="M587,-362C587,-368 581,-374 575,-374"/>
<text text-anchor="middle" x="513" y="-352.6" font-family="Times New Roman,serif" font-size="11.00">NotConnectedToControlPanel</text>
</g>
<!-- state_000002095DF68280&#45;&gt;state_000002095DF68050 -->
<g id="transition_000002095DFCDCB0_000002095DF68050" class="edge"><title>state_000002095DF68280&#45;&gt;state_000002095DF68050</title>
<path fill="none" stroke="black" d="M325.005,-463.462C341.467,-456.751 362.774,-447.548 381,-438 414.924,-420.228 451.812,-396.953 477.947,-379.741"/>
<polygon fill="black" stroke="black" points="479.976,-382.596 486.378,-374.154 476.109,-376.761 479.976,-382.596"/>
<text text-anchor="middle" x="465.5" y="-429.9" font-family="Times New Roman,serif" font-size="9.00">Signal</text>
<text text-anchor="middle" x="465.5" y="-417.9" font-family="Times New Roman,serif" font-size="9.00">InitRpc::rpcInitialized()</text>
</g>
<!-- state_000002095DFCD0D0&#45;&gt;state_000002095DF68050 -->
<g id="transition_000002095DFCD080_000002095DF68050" class="edge"><title>state_000002095DFCD0D0&#45;&gt;state_000002095DF68050</title>
<path fill="none" stroke="black" d="M316.706,-356C350.647,-356 392.266,-356 428.433,-356"/>
<polygon fill="black" stroke="black" points="428.478,-359.5 438.478,-356 428.478,-352.5 428.478,-359.5"/>
<text text-anchor="middle" x="377" y="-371.9" font-family="Times New Roman,serif" font-size="9.00">Signal</text>
<text text-anchor="middle" x="377" y="-359.9" font-family="Times New Roman,serif" font-size="9.00">::controlPanelDisconnected()</text>
</g>
<!-- initialstate_000002095DFCD0D0 -->
<g id="node23" class="node"><title>initialstate_000002095DFCD0D0</title>
<ellipse fill="none" stroke="black" cx="139" cy="-356" rx="27" ry="18"/>
</g>
<!-- state_000002095DF68130 -->
<g id="state_000002095DF68130" class="node"><title>state_000002095DF68130</title>
<polyline fill="none" stroke="black" points="224,-300 132,-300 "/>
<path fill="none" stroke="black" d="M132,-300C126,-300 120,-294 120,-288"/>
<polyline fill="none" stroke="black" points="120,-288 120,-276 "/>
<path fill="none" stroke="black" d="M120,-276C120,-270 126,-264 132,-264"/>
<polyline fill="none" stroke="black" points="132,-264 224,-264 "/>
<path fill="none" stroke="black" d="M224,-264C230,-264 236,-270 236,-276"/>
<polyline fill="none" stroke="black" points="236,-276 236,-288 "/>
<path fill="none" stroke="black" d="M236,-288C236,-294 230,-300 224,-300"/>
<text text-anchor="middle" x="178" y="-278.6" font-family="Times New Roman,serif" font-size="11.00">GetControlPanelStatus</text>
</g>
<!-- initialstate_000002095DFCD0D0&#45;&gt;state_000002095DF68130 -->
<g id="edge15" class="edge"><title>initialstate_000002095DFCD0D0&#45;&gt;state_000002095DF68130</title>
<path fill="none" stroke="black" d="M148.045,-338.837C152.684,-330.036 158.442,-319.11 163.667,-309.195"/>
<polygon fill="black" stroke="black" points="166.893,-310.581 168.46,-300.102 160.701,-307.317 166.893,-310.581"/>
</g>
<!-- state_000002095DFCC9A0 -->
<g id="state_000002095DFCC9A0" class="node"><title>state_000002095DFCC9A0</title>
<polyline fill="none" stroke="black" points="342,-182 312,-182 "/>
<path fill="none" stroke="black" d="M312,-182C306,-182 300,-176 300,-170"/>
<polyline fill="none" stroke="black" points="300,-170 300,-158 "/>
<path fill="none" stroke="black" d="M300,-158C300,-152 306,-146 312,-146"/>
<polyline fill="none" stroke="black" points="312,-146 342,-146 "/>
<path fill="none" stroke="black" d="M342,-146C348,-146 354,-152 354,-158"/>
<polyline fill="none" stroke="black" points="354,-158 354,-170 "/>
<path fill="none" stroke="black" d="M354,-170C354,-176 348,-182 342,-182"/>
<text text-anchor="middle" x="327" y="-160.6" font-family="Times New Roman,serif" font-size="11.00">Ready</text>
</g>
<!-- state_000002095DF68130&#45;&gt;state_000002095DFCC9A0 -->
<g id="transition_000002095DFCDA30_000002095DFCC9A0" class="edge"><title>state_000002095DF68130&#45;&gt;state_000002095DFCC9A0</title>
<path fill="none" stroke="black" d="M216.468,-263.866C239.642,-251.781 268.852,-234.396 291,-214 298.396,-207.189 305.215,-198.638 310.882,-190.544"/>
<polygon fill="black" stroke="black" points="313.915,-192.305 316.554,-182.044 308.092,-188.42 313.915,-192.305"/>
<text text-anchor="middle" x="369" y="-237.9" font-family="Times New Roman,serif" font-size="9.00">Signal</text>
<text text-anchor="middle" x="369" y="-225.9" font-family="Times New Roman,serif" font-size="9.00">GetControlPanelStatus::controlPanelCalibrated()</text>
</g>
<!-- initialstate_000002095DFCC9A0 -->
<g id="node28" class="node"><title>initialstate_000002095DFCC9A0</title>
<ellipse fill="none" stroke="black" cx="255" cy="-164" rx="27" ry="18"/>
</g>
<!-- state_000002095DF68750 -->
<g id="state_000002095DF68750" class="node"><title>state_000002095DF68750</title>
<polyline fill="none" stroke="black" points="301,-108 209,-108 "/>
<path fill="none" stroke="black" d="M209,-108C203,-108 197,-102 197,-96"/>
<polyline fill="none" stroke="black" points="197,-96 197,-84 "/>
<path fill="none" stroke="black" d="M197,-84C197,-78 203,-72 209,-72"/>
<polyline fill="none" stroke="black" points="209,-72 301,-72 "/>
<path fill="none" stroke="black" d="M301,-72C307,-72 313,-78 313,-84"/>
<polyline fill="none" stroke="black" points="313,-84 313,-96 "/>
<path fill="none" stroke="black" d="M313,-96C313,-102 307,-108 301,-108"/>
<text text-anchor="middle" x="255" y="-86.6" font-family="Times New Roman,serif" font-size="11.00">ReadyToStartScenario</text>
</g>
<!-- initialstate_000002095DFCC9A0&#45;&gt;state_000002095DF68750 -->
<g id="edge18" class="edge"><title>initialstate_000002095DFCC9A0&#45;&gt;state_000002095DF68750</title>
<path fill="none" stroke="black" d="M255,-145.708C255,-137.464 255,-127.538 255,-118.362"/>
<polygon fill="black" stroke="black" points="258.5,-118.082 255,-108.082 251.5,-118.082 258.5,-118.082"/>
</g>
<!-- state_000002095DF688A0 -->
<g id="state_000002095DF688A0" class="node"><title>state_000002095DF688A0</title>
<polyline fill="none" stroke="black" points="198,-182 132,-182 "/>
<path fill="none" stroke="black" d="M132,-182C126,-182 120,-176 120,-170"/>
<polyline fill="none" stroke="black" points="120,-170 120,-158 "/>
<path fill="none" stroke="black" d="M120,-158C120,-152 126,-146 132,-146"/>
<polyline fill="none" stroke="black" points="132,-146 198,-146 "/>
<path fill="none" stroke="black" d="M198,-146C204,-146 210,-152 210,-158"/>
<polyline fill="none" stroke="black" points="210,-158 210,-170 "/>
<path fill="none" stroke="black" d="M210,-170C210,-176 204,-182 198,-182"/>
<text text-anchor="middle" x="165" y="-160.6" font-family="Times New Roman,serif" font-size="11.00">RunningScenario</text>
</g>
<!-- state_000002095DF68050&#45;&gt;state_000002095DFCD0D0 -->
<g id="transition_000002095DFCD9E0_000002095DFCD0D0" class="edge"><title>state_000002095DF68050&#45;&gt;state_000002095DFCD0D0</title>
<path fill="none" stroke="black" d="M438.478,-356C403.602,-356 362.097,-356 326.924,-356"/>
<polygon fill="black" stroke="black" points="326.706,-352.5 316.706,-356 326.706,-359.5 326.706,-352.5"/>
<text text-anchor="middle" x="377" y="-371.9" font-family="Times New Roman,serif" font-size="9.00">Signal</text>
<text text-anchor="middle" x="377" y="-359.9" font-family="Times New Roman,serif" font-size="9.00">::controlPanelConnected()</text>
</g>
</g>
</svg>
